<mxfile host="app.diagrams.net" modified="2021-01-28T15:19:26.413Z" agent="5.0 (Windows NT 10.0; Win64; x64) AppleWebKit/537.36 (KHTML, like Gecko) Chrome/87.0.4280.141 Safari/537.36" etag="IC84iPyMbkDIMbGIBR47" version="14.2.7" type="github">
  <diagram id="kgpKYQtTHZ0yAKxKKP6v" name="Page-1">
    <mxGraphModel dx="1767" dy="711" grid="1" gridSize="10" guides="1" tooltips="1" connect="1" arrows="1" fold="1" page="1" pageScale="1" pageWidth="850" pageHeight="1100" math="0" shadow="0">
      <root>
        <mxCell id="0" />
        <mxCell id="1" parent="0" />
        <mxCell id="z3nCiamyU1gE4xFGzEYT-1" value="User Registration" style="rounded=1;whiteSpace=wrap;html=1;" vertex="1" parent="1">
          <mxGeometry x="60" y="160" width="120" height="60" as="geometry" />
        </mxCell>
        <mxCell id="z3nCiamyU1gE4xFGzEYT-2" value="" style="endArrow=classic;html=1;" edge="1" parent="1">
          <mxGeometry width="50" height="50" relative="1" as="geometry">
            <mxPoint x="180" y="189.5" as="sourcePoint" />
            <mxPoint x="250" y="189.5" as="targetPoint" />
            <Array as="points">
              <mxPoint x="210" y="189.5" />
            </Array>
          </mxGeometry>
        </mxCell>
        <mxCell id="z3nCiamyU1gE4xFGzEYT-3" value="User data for score generation" style="rounded=1;whiteSpace=wrap;html=1;" vertex="1" parent="1">
          <mxGeometry x="250" y="160" width="120" height="60" as="geometry" />
        </mxCell>
        <mxCell id="z3nCiamyU1gE4xFGzEYT-4" value="" style="endArrow=classic;html=1;" edge="1" parent="1">
          <mxGeometry width="50" height="50" relative="1" as="geometry">
            <mxPoint x="370" y="189.5" as="sourcePoint" />
            <mxPoint x="440" y="189.5" as="targetPoint" />
          </mxGeometry>
        </mxCell>
        <mxCell id="z3nCiamyU1gE4xFGzEYT-5" value="Algorithm for prioritization based on score" style="rounded=1;whiteSpace=wrap;html=1;" vertex="1" parent="1">
          <mxGeometry x="440" y="160" width="120" height="60" as="geometry" />
        </mxCell>
        <mxCell id="z3nCiamyU1gE4xFGzEYT-6" value="" style="endArrow=classic;html=1;" edge="1" parent="1">
          <mxGeometry width="50" height="50" relative="1" as="geometry">
            <mxPoint x="560" y="189.5" as="sourcePoint" />
            <mxPoint x="620" y="189.5" as="targetPoint" />
          </mxGeometry>
        </mxCell>
        <mxCell id="z3nCiamyU1gE4xFGzEYT-7" value="Add the data to database" style="rounded=1;whiteSpace=wrap;html=1;" vertex="1" parent="1">
          <mxGeometry x="620" y="160" width="120" height="60" as="geometry" />
        </mxCell>
        <mxCell id="z3nCiamyU1gE4xFGzEYT-8" value="START" style="rounded=0;whiteSpace=wrap;html=1;" vertex="1" parent="1">
          <mxGeometry x="10" y="60" width="80" height="30" as="geometry" />
        </mxCell>
        <mxCell id="z3nCiamyU1gE4xFGzEYT-9" value="END" style="rounded=0;whiteSpace=wrap;html=1;" vertex="1" parent="1">
          <mxGeometry x="700" y="60" width="100" height="30" as="geometry" />
        </mxCell>
        <mxCell id="z3nCiamyU1gE4xFGzEYT-10" value="" style="endArrow=classic;html=1;exitX=0.38;exitY=0.98;exitDx=0;exitDy=0;exitPerimeter=0;entryX=0;entryY=0.5;entryDx=0;entryDy=0;" edge="1" parent="1" source="z3nCiamyU1gE4xFGzEYT-8" target="z3nCiamyU1gE4xFGzEYT-1">
          <mxGeometry width="50" height="50" relative="1" as="geometry">
            <mxPoint x="30" y="160" as="sourcePoint" />
            <mxPoint x="40" y="180" as="targetPoint" />
            <Array as="points">
              <mxPoint x="37" y="190" />
            </Array>
          </mxGeometry>
        </mxCell>
        <mxCell id="z3nCiamyU1gE4xFGzEYT-11" value="" style="endArrow=classic;html=1;entryX=0.58;entryY=1.007;entryDx=0;entryDy=0;entryPerimeter=0;exitX=0.983;exitY=0.383;exitDx=0;exitDy=0;exitPerimeter=0;" edge="1" parent="1" source="z3nCiamyU1gE4xFGzEYT-7" target="z3nCiamyU1gE4xFGzEYT-9">
          <mxGeometry width="50" height="50" relative="1" as="geometry">
            <mxPoint x="758" y="180" as="sourcePoint" />
            <mxPoint x="800" y="130" as="targetPoint" />
            <Array as="points">
              <mxPoint x="758" y="184" />
            </Array>
          </mxGeometry>
        </mxCell>
        <mxCell id="z3nCiamyU1gE4xFGzEYT-39" value="10" style="rounded=0;whiteSpace=wrap;html=1;" vertex="1" parent="1">
          <mxGeometry x="109" y="526" width="120" height="30" as="geometry" />
        </mxCell>
        <mxCell id="z3nCiamyU1gE4xFGzEYT-40" value="Case 1" style="rounded=0;whiteSpace=wrap;html=1;" vertex="1" parent="1">
          <mxGeometry x="349" y="496" width="120" height="30" as="geometry" />
        </mxCell>
        <mxCell id="z3nCiamyU1gE4xFGzEYT-41" value="Case 2" style="rounded=0;whiteSpace=wrap;html=1;" vertex="1" parent="1">
          <mxGeometry x="469" y="496" width="120" height="30" as="geometry" />
        </mxCell>
        <mxCell id="z3nCiamyU1gE4xFGzEYT-42" value="Case 3" style="rounded=0;whiteSpace=wrap;html=1;" vertex="1" parent="1">
          <mxGeometry x="589" y="496" width="120" height="30" as="geometry" />
        </mxCell>
        <mxCell id="z3nCiamyU1gE4xFGzEYT-44" value="40" style="rounded=0;whiteSpace=wrap;html=1;" vertex="1" parent="1">
          <mxGeometry x="469" y="526" width="120" height="30" as="geometry" />
        </mxCell>
        <mxCell id="z3nCiamyU1gE4xFGzEYT-45" value="Public sector" style="rounded=0;whiteSpace=wrap;html=1;" vertex="1" parent="1">
          <mxGeometry x="229" y="556" width="120" height="30" as="geometry" />
        </mxCell>
        <mxCell id="z3nCiamyU1gE4xFGzEYT-46" value="IT software" style="rounded=0;whiteSpace=wrap;html=1;" vertex="1" parent="1">
          <mxGeometry x="229" y="586" width="120" height="30" as="geometry" />
        </mxCell>
        <mxCell id="z3nCiamyU1gE4xFGzEYT-47" value="Student" style="rounded=0;whiteSpace=wrap;html=1;" vertex="1" parent="1">
          <mxGeometry x="229" y="616" width="120" height="30" as="geometry" />
        </mxCell>
        <mxCell id="z3nCiamyU1gE4xFGzEYT-49" value="healthcare" style="rounded=0;whiteSpace=wrap;html=1;" vertex="1" parent="1">
          <mxGeometry x="229" y="526" width="120" height="30" as="geometry" />
        </mxCell>
        <mxCell id="z3nCiamyU1gE4xFGzEYT-50" value="10" style="rounded=0;whiteSpace=wrap;html=1;" vertex="1" parent="1">
          <mxGeometry x="349" y="526" width="120" height="30" as="geometry" />
        </mxCell>
        <mxCell id="z3nCiamyU1gE4xFGzEYT-51" value="48" style="rounded=0;whiteSpace=wrap;html=1;" vertex="1" parent="1">
          <mxGeometry x="589" y="616" width="120" height="30" as="geometry" />
        </mxCell>
        <mxCell id="z3nCiamyU1gE4xFGzEYT-53" value="5" style="rounded=0;whiteSpace=wrap;html=1;" vertex="1" parent="1">
          <mxGeometry x="349" y="556" width="120" height="30" as="geometry" />
        </mxCell>
        <mxCell id="z3nCiamyU1gE4xFGzEYT-54" value="20" style="rounded=0;whiteSpace=wrap;html=1;" vertex="1" parent="1">
          <mxGeometry x="469" y="556" width="120" height="30" as="geometry" />
        </mxCell>
        <mxCell id="z3nCiamyU1gE4xFGzEYT-55" value="64" style="rounded=0;whiteSpace=wrap;html=1;" vertex="1" parent="1">
          <mxGeometry x="589" y="586" width="120" height="30" as="geometry" />
        </mxCell>
        <mxCell id="z3nCiamyU1gE4xFGzEYT-56" value="4" style="rounded=0;whiteSpace=wrap;html=1;" vertex="1" parent="1">
          <mxGeometry x="349" y="586" width="120" height="30" as="geometry" />
        </mxCell>
        <mxCell id="z3nCiamyU1gE4xFGzEYT-57" value="16" style="rounded=0;whiteSpace=wrap;html=1;" vertex="1" parent="1">
          <mxGeometry x="469" y="586" width="120" height="30" as="geometry" />
        </mxCell>
        <mxCell id="z3nCiamyU1gE4xFGzEYT-58" value="160" style="rounded=0;whiteSpace=wrap;html=1;" vertex="1" parent="1">
          <mxGeometry x="589" y="526" width="120" height="30" as="geometry" />
        </mxCell>
        <mxCell id="z3nCiamyU1gE4xFGzEYT-59" value="3" style="rounded=0;whiteSpace=wrap;html=1;" vertex="1" parent="1">
          <mxGeometry x="349" y="616" width="120" height="30" as="geometry" />
        </mxCell>
        <mxCell id="z3nCiamyU1gE4xFGzEYT-60" value="12" style="rounded=0;whiteSpace=wrap;html=1;" vertex="1" parent="1">
          <mxGeometry x="469" y="616" width="120" height="30" as="geometry" />
        </mxCell>
        <mxCell id="z3nCiamyU1gE4xFGzEYT-61" value="80" style="rounded=0;whiteSpace=wrap;html=1;" vertex="1" parent="1">
          <mxGeometry x="589" y="556" width="120" height="30" as="geometry" />
        </mxCell>
        <mxCell id="z3nCiamyU1gE4xFGzEYT-62" value="5" style="rounded=0;whiteSpace=wrap;html=1;" vertex="1" parent="1">
          <mxGeometry x="109" y="556" width="120" height="30" as="geometry" />
        </mxCell>
        <mxCell id="z3nCiamyU1gE4xFGzEYT-63" value="4" style="rounded=0;whiteSpace=wrap;html=1;" vertex="1" parent="1">
          <mxGeometry x="109" y="586" width="120" height="30" as="geometry" />
        </mxCell>
        <mxCell id="z3nCiamyU1gE4xFGzEYT-64" value="3" style="rounded=0;whiteSpace=wrap;html=1;" vertex="1" parent="1">
          <mxGeometry x="109" y="616" width="120" height="30" as="geometry" />
        </mxCell>
        <mxCell id="z3nCiamyU1gE4xFGzEYT-66" value="Score" style="rounded=0;whiteSpace=wrap;html=1;" vertex="1" parent="1">
          <mxGeometry x="109" y="496" width="120" height="30" as="geometry" />
        </mxCell>
        <mxCell id="z3nCiamyU1gE4xFGzEYT-67" value="Case 1:None of them present" style="rounded=0;whiteSpace=wrap;html=1;" vertex="1" parent="1">
          <mxGeometry x="108" y="341" width="600" height="30" as="geometry" />
        </mxCell>
        <mxCell id="z3nCiamyU1gE4xFGzEYT-68" value="Case 2:One of them is present" style="rounded=0;whiteSpace=wrap;html=1;" vertex="1" parent="1">
          <mxGeometry x="108" y="371" width="600" height="30" as="geometry" />
        </mxCell>
        <mxCell id="z3nCiamyU1gE4xFGzEYT-69" value="Case 3:Both diabetes and Respiratory diseases present" style="rounded=0;whiteSpace=wrap;html=1;" vertex="1" parent="1">
          <mxGeometry x="108" y="401" width="600" height="30" as="geometry" />
        </mxCell>
        <mxCell id="z3nCiamyU1gE4xFGzEYT-70" value="Score for each of them :4" style="rounded=0;whiteSpace=wrap;html=1;" vertex="1" parent="1">
          <mxGeometry x="108" y="431" width="600" height="30" as="geometry" />
        </mxCell>
        <mxCell id="z3nCiamyU1gE4xFGzEYT-71" value="Flowchart&amp;nbsp;" style="rounded=0;whiteSpace=wrap;html=1;" vertex="1" parent="1">
          <mxGeometry x="10" y="10" width="810" height="40" as="geometry" />
        </mxCell>
        <mxCell id="z3nCiamyU1gE4xFGzEYT-72" value="Score Generation" style="rounded=0;whiteSpace=wrap;html=1;" vertex="1" parent="1">
          <mxGeometry x="20" y="250" width="770" height="40" as="geometry" />
        </mxCell>
      </root>
    </mxGraphModel>
  </diagram>
</mxfile>
